<svg width="93" height="92" viewBox="0 0 93 92" fill="none" xmlns="http://www.w3.org/2000/svg">
<path d="M0.724609 44.8642C0.724609 44.359 0.724609 43.862 0.724609 43.3568C0.765351 43.1612 0.822388 42.9738 0.830536 42.7782C0.977205 40.7575 1.26239 38.753 1.65351 36.7648C2.36241 33.1307 3.50316 29.6433 5.08392 26.2944C7.81358 20.4928 11.6107 15.4817 16.4426 11.269C21.1522 7.1623 26.4893 4.14745 32.4294 2.21632C35.982 1.06742 39.6161 0.366671 43.3399 0.114075C43.7147 0.0896306 44.0814 0.0407412 44.4562 0C44.8147 0 45.1651 0 45.5236 0C45.5236 0.122224 45.5481 0.252595 45.5481 0.374819C45.5481 3.34078 45.4177 6.29859 45.2955 9.26455C45.1977 11.6601 45.0347 14.0557 44.7821 16.4431C44.554 18.5535 44.2607 20.6476 43.8288 22.7173C43.3399 25.0477 42.688 27.3373 41.7184 29.5129C39.4369 34.6056 35.7865 38.3619 30.7346 40.7493C28.282 41.9064 25.699 42.6397 23.0508 43.1694C20.3863 43.699 17.6892 44.0168 14.984 44.2205C12.8899 44.3753 10.7958 44.5057 8.70174 44.5953C6.28986 44.7012 3.87798 44.742 1.47425 44.8153C1.22165 44.8153 0.977205 44.8479 0.724609 44.8642Z" fill="#128981"/>
<path d="M92.1473 44.8658C92.0169 44.8495 91.8784 44.8251 91.748 44.8251C90.0369 44.7762 88.3257 44.7354 86.6146 44.6703C84.7487 44.5969 82.8827 44.4991 81.0168 44.3851C79.6316 44.2954 78.2464 44.1814 76.8693 44.051C74.8974 43.8636 72.9337 43.5947 70.9781 43.2199C68.9655 42.8369 66.9937 42.3154 65.0707 41.6065C60.9314 40.0828 57.501 37.5731 54.7876 34.102C53.3861 32.3094 52.3594 30.3131 51.5446 28.1945C50.7542 26.1249 50.2083 23.9819 49.7927 21.8063C49.3772 19.5981 49.0757 17.3737 48.9046 15.141C48.7579 13.2262 48.6194 11.3114 48.5297 9.38839C48.4238 7.0091 48.3668 4.62982 48.2934 2.25053C48.2772 1.66386 48.3097 1.08533 48.3342 0.49866C48.3342 0.335695 48.3831 0.17273 48.4075 0.00976562C48.5786 0.00976562 48.7416 0.00976562 48.9127 0.00976562C48.9698 0.0260621 49.0268 0.0586551 49.092 0.0586551C50.0861 0.164582 51.0801 0.270509 52.0824 0.376436C53.6387 0.539401 55.1787 0.808293 56.7106 1.16682C63.8647 2.84535 70.2855 6.02316 75.8997 10.7736C83.0457 16.8114 87.902 24.3404 90.4687 33.3361C91.0228 35.2753 91.4221 37.2472 91.7073 39.2435C91.8947 40.5472 92.0821 41.8428 92.1065 43.1628C92.1065 43.2525 92.1391 43.3421 92.1554 43.4317V44.874L92.1473 44.8658Z" fill="#128981"/>
<path d="M0.724609 47.4941C2.73722 47.543 4.75799 47.5593 6.7706 47.6327C9.10915 47.7223 11.4395 47.8364 13.7781 47.9912C15.3833 48.0971 16.9803 48.2519 18.5774 48.4393C21.8448 48.8223 25.0715 49.4171 28.2005 50.5008C31.0931 51.5031 33.7331 52.9372 36.0309 54.9742C38.9317 57.5328 41.0014 60.6617 42.3458 64.2795C43.1362 66.4225 43.6821 68.6225 44.0977 70.8633C44.4236 72.6315 44.6681 74.4078 44.831 76.1922C44.9695 77.6345 45.0755 79.0849 45.1651 80.5271C45.3688 83.6316 45.4666 86.7442 45.5481 89.8487C45.5644 90.3702 45.5807 90.8917 45.597 91.4131H44.4073C44.0325 91.3724 43.6658 91.3398 43.291 91.2991C41.9302 91.1442 40.5695 91.0302 39.2169 90.8265C36.805 90.4679 34.4583 89.865 32.1442 89.0909C24.876 86.6464 18.5611 82.7108 13.2973 77.1048C8.40025 71.89 4.83947 65.901 2.76167 59.0483C1.71869 55.6342 1.09943 52.1386 0.846833 48.5779C0.830536 48.3823 0.773499 48.1949 0.732758 47.9993C0.732758 47.8282 0.732758 47.6653 0.732758 47.4941H0.724609Z" fill="#128981"/>
<path d="M48.4073 91.423C48.3666 90.9993 48.2933 90.5756 48.3014 90.1518C48.334 88.2615 48.391 86.3711 48.4481 84.4807C48.4807 83.4377 48.5296 82.3947 48.6029 81.3517C48.7088 79.8199 48.8147 78.288 48.9614 76.7643C49.0836 75.4687 49.2303 74.1732 49.4177 72.8776C49.8903 69.5938 50.5748 66.359 51.854 63.2871C53.7933 58.6589 56.8896 55.0329 61.2245 52.4825C63.229 51.3092 65.3801 50.5025 67.6127 49.8833C69.5357 49.3536 71.4913 48.9707 73.4632 48.6773C75.435 48.384 77.4151 48.1721 79.4032 48.0173C81.0084 47.8951 82.6136 47.8136 84.2188 47.7321C86.4596 47.618 88.7085 47.5447 90.9493 47.5692C91.3485 47.5692 91.7397 47.6017 92.1389 47.6262V48.1884C92.1226 48.278 92.09 48.3677 92.0819 48.4573C92.0574 48.7832 92.0574 49.101 92.0085 49.427C91.7967 51.0159 91.6174 52.6211 91.3485 54.2018C90.8841 56.9233 90.0937 59.5634 89.0996 62.1382C84.1618 74.9065 73.1291 85.9555 58.2015 89.8667C56.6045 90.2822 54.9993 90.657 53.3615 90.877C52.1474 91.0319 50.9333 91.1622 49.7273 91.3089C49.4096 91.3496 49.0918 91.3904 48.7659 91.423H48.391H48.4073Z" fill="#128981"/>
</svg>
