<svg width="111" height="97" viewBox="0 0 111 97" fill="none" xmlns="http://www.w3.org/2000/svg">
<path d="M72.8477 0.933529L91.0279 32.8892C91.0279 32.8892 92.682 35.0935 89.9277 35.0935H48.6049L59.0722 24.6262C59.0722 24.6262 56.3178 21.8719 50.2552 20.7678C45.9203 19.9776 39.788 20.7678 37.5837 21.3179C33.6905 22.2903 30.4209 22.9721 26.0124 26.8266C21.6039 30.685 18.8496 35.0896 18.8496 35.0896C18.8496 35.0896 21.3289 27.6517 24.9084 22.9682C27.5232 19.5514 32.3927 15.387 36.4797 13.051C40.3381 10.8468 43.6425 9.74662 51.3554 8.64256C58.9908 7.55013 67.494 10.134 67.8853 9.74275C68.4354 9.19265 72.8438 0.925781 72.8438 0.925781L72.8477 0.933529Z" fill="#128981"/>
<path d="M38.6278 96.5252L20.4476 64.5695C20.4476 64.5695 18.7935 62.3652 21.5478 62.3652H62.8706L52.4033 72.8325C52.4033 72.8325 55.1577 75.5868 61.2203 76.6909C65.5552 77.4811 71.6875 76.6909 73.8918 76.1408C77.785 75.1684 81.0546 74.4866 85.4631 70.6321C89.8716 66.7737 92.6259 62.3691 92.6259 62.3691C92.6259 62.3691 90.1466 69.807 86.5671 74.4905C83.9523 77.9073 79.0828 82.0717 74.9958 84.4076C71.1374 86.6119 67.833 87.7121 60.1201 88.8161C52.4847 89.9086 43.9815 87.3247 43.5902 87.7159C43.0401 88.266 38.6317 96.5329 38.6317 96.5329L38.6278 96.5252Z" fill="#128981"/>
<path d="M7.66478 39.584H11.1939L17.9422 55.4011H14.2388L12.7861 51.6356H5.90991L4.49981 55.4011H0.970703L7.66478 39.584ZM9.29956 42.7257L6.98685 48.8155H11.7014L9.30343 42.7257H9.29956Z" fill="#128981"/>
<path d="M21.901 55.4011H18.7051V39.584H21.901V55.4011Z" fill="#128981"/>
<path d="M27.6764 55.4011H24.4805V39.584H27.6764V55.4011Z" fill="#128981"/>
<path d="M30.1097 52.9799H36.5752C37.6715 52.9799 38.2216 52.6041 38.2216 51.8487C38.2216 51.0933 37.6715 50.7098 36.5752 50.7098H33.9294C32.4457 50.7098 31.423 50.5006 30.8612 50.0861C30.2298 49.6135 29.916 48.7263 29.916 47.4286C29.916 45.0035 31.2835 43.791 34.0146 43.791H40.6002V46.2122H35.1884C34.4059 46.2122 33.879 46.2664 33.6078 46.3749C33.2476 46.5182 33.0694 46.8165 33.0694 47.2698C33.0694 47.9671 33.5536 48.3118 34.5221 48.3118H37.2996C39.9029 48.3118 41.2045 49.4624 41.2045 51.7674C41.2045 52.852 40.9062 53.7275 40.3058 54.3977C39.7053 55.0679 38.9499 55.4049 38.0318 55.4049H30.1136V52.9838L30.1097 52.9799Z" fill="#128981"/>
<path d="M43.3906 39.584H46.4355V43.791H49.1588C50.8595 43.791 52.0914 44.1242 52.8623 44.7905C53.6293 45.4568 54.0128 46.5415 54.0128 48.0407V55.4011H50.9253V48.3971C50.9253 47.6146 50.782 47.0761 50.4992 46.7817C50.2164 46.4873 49.6741 46.34 48.8799 46.34H46.4355V55.4011H43.3906V39.584Z" fill="#128981"/>
<path d="M56.9018 43.791H63.1853C66.3774 43.791 67.9734 45.236 67.9734 48.1259V55.4011H59.7298C58.5753 55.4011 57.6882 55.1105 57.0684 54.5294C56.4486 53.9483 56.1387 53.1232 56.1387 52.054C56.1387 50.7214 56.5028 49.7684 57.2272 49.2028C57.9516 48.6372 59.1371 48.3545 60.7757 48.3545H64.8201V48.0639C64.8201 47.3472 64.5954 46.8514 64.1499 46.5802C63.7392 46.3207 63.0342 46.1928 62.0347 46.1928H56.898V43.7949L56.9018 43.791ZM60.981 53.0651H64.8239V50.6672H61.2096C60.5278 50.6672 60.0474 50.7524 59.7685 50.9267C59.4663 51.1204 59.3153 51.4691 59.3153 51.9688C59.3153 52.4685 59.4857 52.7746 59.8305 52.9256C60.0397 53.0186 60.4232 53.0651 60.981 53.0651Z" fill="#128981"/>
<path d="M70.6425 43.791H75.7948C77.0073 43.791 77.8519 44.008 78.3361 44.4418C78.8165 44.8757 79.0566 45.635 79.0566 46.7158V48.6527H76.128V47.1574C76.128 46.6616 76.0272 46.3439 75.8258 46.2006C75.6592 46.0805 75.3145 46.0185 74.7837 46.0185H73.7068V55.4011H70.6387V43.791H70.6425Z" fill="#128981"/>
<path d="M84.2251 42.4662H81.0098V39.584H84.2251V42.4662ZM84.2251 55.4011H81.0098V43.791H84.2251V55.4011Z" fill="#128981"/>
<path d="M86.8711 43.791H92.6393C94.3748 43.791 95.6183 44.1164 96.3698 44.7634C97.1175 45.4142 97.4933 46.5066 97.4933 48.0407V55.4011H94.4251V48.4164C94.4251 47.5836 94.3051 47.0373 94.0687 46.77C93.8014 46.4834 93.2475 46.34 92.3991 46.34H89.9353V55.4011H86.8672V43.791H86.8711Z" fill="#128981"/>
<path d="M110.996 54.9827C110.996 56.5594 110.644 57.7254 109.943 58.4808C109.238 59.2324 108.126 59.612 106.607 59.612H100.591V57.2567H106.08C107.301 57.2567 107.909 56.7027 107.909 55.5987V55.405H105.414C104.337 55.405 103.555 55.3469 103.066 55.2345C102.315 55.0641 101.641 54.6922 101.056 54.1266C99.9093 53.0225 99.3359 51.5233 99.3359 49.629C99.3359 47.7347 99.9093 46.2742 101.056 45.1624C101.997 44.252 103.45 43.7949 105.414 43.7949H111V54.9866L110.996 54.9827ZM106.317 53.0032H107.909V46.2781H106.317C105.127 46.2781 104.318 46.402 103.896 46.6538C102.985 47.1923 102.528 48.1802 102.528 49.6251C102.528 50.9151 102.834 51.8139 103.442 52.3136C103.996 52.7746 104.953 53.0032 106.317 53.0032Z" fill="#128981"/>
</svg>
