<svg width="52" height="43" viewBox="0 0 52 43" fill="none" xmlns="http://www.w3.org/2000/svg">
<path d="M3.23084 18.6308C3.23084 18.6308 26.0948 9.24402 34.0312 5.94399C37.0705 4.62397 47.378 0.395036 47.378 0.395036C47.378 0.395036 52.1366 -1.45461 51.7373 3.03507C51.6069 4.88472 50.5477 11.3626 49.4884 18.37C47.8995 28.2865 46.1802 39.1236 46.1802 39.1236C46.1802 39.1236 45.9195 42.1629 43.6705 42.6925C41.4216 43.2222 37.7223 40.8429 37.0623 40.3132C36.5327 39.914 27.1459 33.9658 23.7155 31.0569C22.7866 30.2665 21.7355 28.6776 23.8459 26.8279C28.6045 22.4686 34.2919 17.05 37.7223 13.6115C39.3112 12.0226 40.892 8.32327 34.2838 12.8211C24.897 19.2989 15.6488 25.3775 15.6488 25.3775C15.6488 25.3775 13.5302 26.6975 9.57017 25.5079C5.60198 24.3183 0.981929 22.7294 0.981929 22.7294C0.981929 22.7294 -2.18774 20.7493 3.23084 18.6308Z" fill="#128981"/>
</svg>
