<svg width="45" height="52" viewBox="0 0 45 52" fill="none" xmlns="http://www.w3.org/2000/svg">
<path d="M44.4455 20.8138C44.0217 20.8546 43.6062 20.879 43.1825 20.879C38.5543 20.879 34.2357 18.5486 31.6935 14.6701V35.8066C31.6935 44.4356 24.7023 51.4268 16.0733 51.4268C7.44431 51.4268 0.453125 44.4356 0.453125 35.8066C0.453125 27.1776 7.44431 20.1864 16.0733 20.1864C16.3992 20.1864 16.717 20.219 17.0429 20.2353V27.9354C16.7252 27.8946 16.4074 27.8376 16.0733 27.8376C11.6732 27.8376 8.09617 31.4065 8.09617 35.8147C8.09617 40.2229 11.6651 43.7919 16.0733 43.7919C20.4815 43.7919 24.3682 40.3207 24.3682 35.9207L24.4415 0.0195312H31.8075C32.5001 6.62775 37.8291 11.7856 44.4536 12.2663V20.822L44.4455 20.8138Z" fill="#128981"/>
</svg>
