<svg width="59" height="34" viewBox="0 0 59 34" fill="none" xmlns="http://www.w3.org/2000/svg">
<path fill-rule="evenodd" clip-rule="evenodd" d="M29.0585 32.9264H32.4928C32.4928 32.9264 33.5309 32.8093 34.0616 32.2395C34.5456 31.7165 34.53 30.7331 34.53 30.7331C34.53 30.7331 34.4597 26.1202 36.6062 25.4411C38.7136 24.7698 41.422 29.8979 44.2944 31.8727C46.4643 33.3635 48.119 33.0356 48.119 33.0356L55.7994 32.9264C55.7994 32.9264 59.8191 32.6766 57.9146 29.5233C57.7585 29.2657 56.8063 27.1895 52.209 22.92C47.3931 18.4475 48.0409 19.1734 53.8403 11.4462C57.3683 6.73961 58.781 3.86726 58.3439 2.63402C57.9224 1.46323 55.3233 1.76763 55.3233 1.76763L46.675 1.82227C46.675 1.82227 46.035 1.73641 45.5588 2.0174C45.0905 2.29839 44.7939 2.94623 44.7939 2.94623C44.7939 2.94623 43.428 6.59131 41.6016 9.69001C37.7536 16.223 36.2159 16.5743 35.5837 16.1684C34.1163 15.224 34.4831 12.3672 34.4831 10.3378C34.4831 3.99995 35.4432 1.36176 32.6099 0.674895C31.6732 0.448541 30.9786 0.300239 28.5745 0.276823C25.4914 0.245602 22.8767 0.28463 21.4015 1.01052C20.418 1.49445 19.6609 2.56378 20.1214 2.62622C20.6912 2.70427 21.9869 2.97746 22.6737 3.90629C23.5635 5.1083 23.5323 7.81674 23.5323 7.81674C23.5323 7.81674 24.0396 15.2708 22.3459 16.1996C21.1829 16.8319 19.5828 15.5362 16.1485 9.60415C14.3923 6.56789 13.0654 3.21162 13.0654 3.21162C13.0654 3.21162 12.8078 2.58719 12.3551 2.25156C11.8009 1.84569 11.0282 1.713 11.0282 1.713L2.80925 1.76763C2.80925 1.76763 1.57601 1.79885 1.1233 2.33742C0.717428 2.81354 1.09208 3.80482 1.09208 3.80482C1.09208 3.80482 7.52365 18.8534 14.806 26.4324C21.4873 33.3869 29.0663 32.9264 29.0663 32.9264H29.0585Z" fill="#128981"/>
</svg>
