<svg width="111" height="97" viewBox="0 0 111 97" fill="none" xmlns="http://www.w3.org/2000/svg">
<path d="M72.2443 0L90.5219 32.114C90.5219 32.114 92.1781 34.3272 89.4079 34.3272C86.6377 34.3272 47.8693 34.3272 47.8693 34.3272L58.3932 23.8033C58.3932 23.8033 55.623 21.0331 49.5256 19.9338C45.1724 19.1423 39.0017 19.9338 36.7885 20.4908C32.875 21.4728 29.5918 22.1471 25.1653 26.0312C20.7388 29.9154 17.9686 34.3419 17.9686 34.3419C17.9686 34.3419 20.4603 26.8667 24.066 22.1617C26.6896 18.7319 31.5852 14.54 35.6892 12.1948C39.5587 9.98157 42.8859 8.86762 50.6396 7.76833C58.3932 6.66904 66.8651 9.26337 67.2462 8.88228C67.8032 8.32531 72.2297 0.0146572 72.2297 0.0146572L72.2443 0Z" fill="white"/>
<path d="M37.8459 96.0774L19.5683 63.9634C19.5683 63.9634 17.9121 61.7501 20.6823 61.7501H62.2209L51.697 72.274C51.697 72.274 54.4672 75.0442 60.5646 76.1435C64.9178 76.935 71.0885 76.1435 73.3017 75.5865C77.2152 74.6045 80.4984 73.9303 84.9249 70.0461C89.3514 66.1619 92.1216 61.7355 92.1216 61.7355C92.1216 61.7355 89.6299 69.2106 86.0242 73.9156C83.4006 77.3454 78.505 81.5374 74.401 83.8825C70.5315 86.0958 67.2043 87.2097 59.4506 88.309C51.7703 89.4083 43.2251 86.814 42.844 87.1951C42.287 87.752 37.8605 96.0627 37.8605 96.0627L37.8459 96.0774Z" fill="white"/>
<path d="M6.72767 38.8419H10.2747L17.061 54.745H13.3381L11.8724 50.9635H4.9688L3.54705 54.745H0L6.72767 38.8419ZM8.36928 41.9933L6.03878 48.12H10.7731L8.35462 41.9933H8.36928Z" fill="white"/>
<path d="M21.0324 54.7452H17.8225V38.8421H21.0324V54.7452Z" fill="white"/>
<path d="M26.8356 54.7452H23.6257V38.8421H26.8356V54.7452Z" fill="white"/>
<path d="M29.2847 52.3114H35.7778C36.8771 52.3114 37.4341 51.9304 37.4341 51.1828C37.4341 50.4353 36.8771 50.0396 35.7778 50.0396H33.1102C31.6152 50.0396 30.5891 49.8344 30.0322 49.4093C29.4019 48.9403 29.0795 48.0462 29.0795 46.7417C29.0795 44.3086 30.4572 43.092 33.1981 43.092H39.8232V45.5251H34.3854C33.5939 45.5251 33.0662 45.5838 32.8024 45.6864C32.436 45.833 32.2601 46.1261 32.2601 46.5805C32.2601 47.284 32.7438 47.6358 33.7258 47.6358H36.5107C39.1343 47.6358 40.4388 48.7937 40.4388 51.1096C40.4388 52.1942 40.131 53.0736 39.5301 53.7479C38.9291 54.4221 38.1669 54.7592 37.2435 54.7592H29.2847V52.3261V52.3114Z" fill="white"/>
<path d="M42.6361 38.8421H45.6995V43.078H48.4404C50.1553 43.078 51.3865 43.4152 52.1633 44.0894C52.9401 44.7636 53.3212 45.8483 53.3212 47.358V54.7599H50.2139V47.7244C50.2139 46.9329 50.0673 46.3906 49.7888 46.0974C49.5103 45.8043 48.968 45.6577 48.1619 45.6577H45.7141V54.7599H42.6508V38.8568L42.6361 38.8421Z" fill="white"/>
<path d="M56.2263 43.0785H62.5436C65.7535 43.0785 67.3511 44.5296 67.3511 47.4317V54.7456H59.0698C57.9119 54.7456 57.0178 54.4525 56.3875 53.8662C55.7573 53.2799 55.4495 52.4591 55.4495 51.3745C55.4495 50.0407 55.8159 49.0733 56.5488 48.5017C57.2816 47.93 58.4688 47.6515 60.1105 47.6515H64.1705V47.3584C64.1705 46.6402 63.9507 46.1418 63.4963 45.8634C63.0859 45.5995 62.3823 45.4676 61.371 45.4676H56.2116V43.0492L56.2263 43.0785ZM60.3303 52.4005H64.1852V49.982H60.5502C59.8613 49.982 59.3776 50.07 59.0991 50.2459C58.7913 50.4364 58.6447 50.7882 58.6447 51.3012C58.6447 51.8142 58.8206 52.1073 59.1577 52.2686C59.3629 52.3565 59.7587 52.4151 60.3157 52.4151L60.3303 52.4005Z" fill="white"/>
<path d="M70.0328 43.0781H75.2068C76.4234 43.0781 77.2735 43.298 77.7572 43.7377C78.2408 44.1774 78.4754 44.9396 78.4754 46.0242V47.9736H75.5293V46.4639C75.5293 45.9656 75.4267 45.6431 75.2215 45.4966C75.0602 45.3793 74.7085 45.306 74.1661 45.306H73.0815V54.7306H70.0035V43.0635L70.0328 43.0781Z" fill="white"/>
<path d="M83.677 41.7442H80.4378V38.8421H83.677V41.7442ZM83.677 54.7452H80.4378V43.078H83.677V54.7452Z" fill="white"/>
<path d="M86.3458 43.0778H92.1354C93.8796 43.0778 95.1255 43.4002 95.8876 44.0598C96.6352 44.7194 97.0163 45.804 97.0163 47.3577V54.7596H93.9382V47.7388C93.9382 46.9033 93.821 46.3463 93.5865 46.0825C93.3226 45.7893 92.7657 45.6428 91.9155 45.6428H89.4385V54.7449H86.3604V43.0778H86.3458Z" fill="white"/>
<path d="M110.59 54.3202C110.59 55.9032 110.238 57.0758 109.534 57.8379C108.831 58.6001 107.717 58.9666 106.178 58.9666H100.139V56.5921H105.65C106.881 56.5921 107.482 56.0351 107.482 54.9212V54.7306H104.976C103.891 54.7306 103.114 54.672 102.616 54.5547C101.854 54.3788 101.18 54.0124 100.593 53.4408C99.4354 52.3268 98.8638 50.8171 98.8638 48.9264C98.8638 47.0356 99.4354 45.5552 100.593 44.4412C101.531 43.5325 102.997 43.0635 104.976 43.0635H110.59V54.3056V54.3202ZM105.885 52.3268H107.482V45.5698H105.885C104.683 45.5698 103.877 45.7018 103.451 45.9509C102.543 46.4933 102.074 47.4899 102.074 48.941C102.074 50.2455 102.382 51.1396 102.997 51.6379C103.554 52.107 104.521 52.3268 105.885 52.3268Z" fill="white"/>
</svg>
