<svg width="111" height="97" viewBox="0 0 111 97" fill="none" xmlns="http://www.w3.org/2000/svg">
<path d="M72.846 0.933529L91.0262 32.8892C91.0262 32.8892 92.6804 35.0935 89.926 35.0935H48.6033L59.0705 24.6262C59.0705 24.6262 56.3162 21.8719 50.2535 20.7678C45.9187 19.9776 39.7863 20.7678 37.5821 21.3179C33.6888 22.2903 30.4192 22.9721 26.0108 26.8266C21.6023 30.685 18.8479 35.0896 18.8479 35.0896C18.8479 35.0896 21.3272 27.6517 24.9067 22.9682C27.5216 19.5514 32.3911 15.387 36.478 13.051C40.3364 10.8468 43.6408 9.74662 51.3537 8.64256C58.9892 7.55013 67.4923 10.134 67.8836 9.74275C68.4337 9.19265 72.8422 0.925781 72.8422 0.925781L72.846 0.933529Z" fill="#128981"/>
<path d="M38.628 96.5252L20.4479 64.5695C20.4479 64.5695 18.7937 62.3652 21.5481 62.3652H62.8708L52.4036 72.8325C52.4036 72.8325 55.1579 75.5868 61.2205 76.6909C65.5554 77.4811 71.6878 76.6909 73.892 76.1408C77.7853 75.1684 81.0548 74.4866 85.4633 70.6321C89.8718 66.7737 92.6261 62.3691 92.6261 62.3691C92.6261 62.3691 90.1469 69.807 86.5674 74.4905C83.9525 77.9073 79.083 82.0717 74.9961 84.4076C71.1377 86.6119 67.8333 87.7121 60.1204 88.8161C52.4849 89.9086 43.9817 87.3247 43.5905 87.7159C43.0404 88.266 38.6319 96.5329 38.6319 96.5329L38.628 96.5252Z" fill="#128981"/>
<path d="M7.66405 39.584H11.1932L17.9415 55.4011H14.238L12.7853 51.6356H5.90918L4.49908 55.4011H0.969971L7.66405 39.584ZM9.29883 42.7257L6.98612 48.8155H11.7006L9.3027 42.7257H9.29883Z" fill="#128981"/>
<path d="M21.9006 55.4011H18.7046V39.584H21.9006V55.4011Z" fill="#128981"/>
<path d="M27.6765 55.4011H24.4806V39.584H27.6765V55.4011Z" fill="#128981"/>
<path d="M30.1094 52.9799H36.5749C37.6712 52.9799 38.2213 52.6041 38.2213 51.8487C38.2213 51.0933 37.6712 50.7098 36.5749 50.7098H33.929C32.4453 50.7098 31.4226 50.5006 30.8609 50.0861C30.2295 49.6135 29.9157 48.7263 29.9157 47.4286C29.9157 45.0035 31.2831 43.791 34.0142 43.791H40.5998V46.2122H35.188C34.4055 46.2122 33.8786 46.2664 33.6075 46.3749C33.2472 46.5182 33.069 46.8165 33.069 47.2698C33.069 47.9671 33.5532 48.3118 34.5217 48.3118H37.2993C39.9025 48.3118 41.2042 49.4624 41.2042 51.7674C41.2042 52.852 40.9059 53.7275 40.3054 54.3977C39.705 55.0679 38.9496 55.4049 38.0315 55.4049H30.1132V52.9838L30.1094 52.9799Z" fill="#128981"/>
<path d="M43.389 39.584H46.4339V43.791H49.1572C50.8579 43.791 52.0898 44.1242 52.8607 44.7905C53.6277 45.4568 54.0112 46.5415 54.0112 48.0407V55.4011H50.9237V48.3971C50.9237 47.6146 50.7804 47.0761 50.4976 46.7817C50.2148 46.4873 49.6725 46.34 48.8783 46.34H46.4339V55.4011H43.389V39.584Z" fill="#128981"/>
<path d="M56.9011 43.791H63.1846C66.3767 43.791 67.9727 45.236 67.9727 48.1259V55.4011H59.7291C58.5747 55.4011 57.6875 55.1105 57.0677 54.5294C56.4479 53.9483 56.138 53.1232 56.138 52.054C56.138 50.7214 56.5021 49.7684 57.2265 49.2028C57.951 48.6372 59.1364 48.3545 60.775 48.3545H64.8194V48.0639C64.8194 47.3472 64.5947 46.8514 64.1492 46.5802C63.7385 46.3207 63.0335 46.1928 62.034 46.1928H56.8973V43.7949L56.9011 43.791ZM60.9803 53.0651H64.8232V50.6672H61.2089C60.5271 50.6672 60.0467 50.7524 59.7678 50.9267C59.4657 51.1204 59.3146 51.4691 59.3146 51.9688C59.3146 52.4685 59.485 52.7746 59.8298 52.9256C60.039 53.0186 60.4225 53.0651 60.9803 53.0651Z" fill="#128981"/>
<path d="M70.6418 43.791H75.7941C77.0066 43.791 77.8511 44.008 78.3354 44.4418C78.8157 44.8757 79.0559 45.635 79.0559 46.7158V48.6527H76.1272V47.1574C76.1272 46.6616 76.0265 46.3439 75.8251 46.2006C75.6585 46.0805 75.3137 46.0185 74.783 46.0185H73.7061V55.4011H70.6379V43.791H70.6418Z" fill="#128981"/>
<path d="M84.2237 42.4662H81.0083V39.584H84.2237V42.4662ZM84.2237 55.4011H81.0083V43.791H84.2237V55.4011Z" fill="#128981"/>
<path d="M86.8695 43.791H92.6378C94.3733 43.791 95.6168 44.1164 96.3683 44.7634C97.116 45.4142 97.4917 46.5066 97.4917 48.0407V55.4011H94.4236V48.4164C94.4236 47.5836 94.3035 47.0373 94.0672 46.77C93.7999 46.4834 93.246 46.34 92.3976 46.34H89.9338V55.4011H86.8657V43.791H86.8695Z" fill="#128981"/>
<path d="M110.996 54.9827C110.996 56.5594 110.644 57.7254 109.942 58.4808C109.237 59.2324 108.126 59.612 106.607 59.612H100.591V57.2567H106.08C107.3 57.2567 107.909 56.7027 107.909 55.5987V55.405H105.414C104.337 55.405 103.554 55.3469 103.066 55.2345C102.315 55.0641 101.641 54.6922 101.056 54.1266C99.909 53.0225 99.3357 51.5233 99.3357 49.629C99.3357 47.7347 99.909 46.2742 101.056 45.1624C101.997 44.252 103.45 43.7949 105.414 43.7949H111V54.9866L110.996 54.9827ZM106.316 53.0032H107.909V46.2781H106.316C105.127 46.2781 104.318 46.402 103.895 46.6538C102.985 47.1923 102.528 48.1802 102.528 49.6251C102.528 50.9151 102.834 51.8139 103.442 52.3136C103.996 52.7746 104.953 53.0032 106.316 53.0032Z" fill="#128981"/>
</svg>
