<?xml version="1.0" encoding="utf-8"?><svg viewBox="0 0 111 97" xmlns="http://www.w3.org/2000/svg" xmlns:xlink="http://www.w3.org/1999/xlink"><style>:root>svg{display:none}:root>svg:target{display:block}</style><svg viewBox="0 0 37 33" id="arrows" xmlns="http://www.w3.org/2000/svg"><path d="M2 2l14.5 14.5L2 31M21 2l14.5 14.5L21 31"/></svg><svg viewBox="0 0 93 92" id="dzen" xmlns="http://www.w3.org/2000/svg"><path d="M.725 44.864v-1.507c.04-.196.097-.383.106-.579a49.54 49.54 0 01.823-6.013 44.285 44.285 0 013.43-10.47c2.73-5.802 6.527-10.813 11.359-15.026 4.71-4.107 10.046-7.122 15.986-9.053A45.27 45.27 0 0143.34.114c.376-.024.742-.073 1.117-.114h1.068c0 .122.024.253.024.375 0 2.966-.13 5.924-.253 8.89-.097 2.395-.26 4.79-.513 7.178-.228 2.11-.521 4.205-.953 6.274-.49 2.33-1.141 4.62-2.11 6.796-2.282 5.093-5.933 8.849-10.984 11.236-2.453 1.157-5.036 1.89-7.684 2.42-2.665.53-5.362.848-8.067 1.052a202.87 202.87 0 01-6.282.374c-2.412.106-4.824.147-7.228.22-.252 0-.497.033-.75.05zm91.422.002c-.13-.017-.269-.04-.399-.04-1.711-.05-3.422-.09-5.133-.156a258.279 258.279 0 01-5.598-.285c-1.385-.09-2.77-.204-4.148-.334a62.85 62.85 0 01-5.89-.831 37.047 37.047 0 01-5.908-1.614c-4.14-1.523-7.57-4.033-10.283-7.504-1.402-1.793-2.429-3.789-3.243-5.907-.79-2.07-1.337-4.213-1.752-6.389a61.439 61.439 0 01-.888-6.665c-.147-1.915-.286-3.83-.375-5.753-.106-2.379-.163-4.758-.237-7.137-.016-.587.017-1.166.041-1.752 0-.163.05-.326.073-.49h.506c.057.017.114.05.179.05.994.106 1.988.212 2.99.317a37.36 37.36 0 014.629.79c7.154 1.68 13.575 4.857 19.189 9.608 7.146 6.037 12.002 13.566 14.569 22.562a44.24 44.24 0 011.238 5.907c.188 1.304.375 2.6.4 3.92 0 .09.032.18.048.269v1.442l-.008-.008zM.725 47.494c2.012.049 4.033.065 6.046.139 2.338.09 4.669.203 7.007.358a94.15 94.15 0 014.8.448c3.267.383 6.494.978 9.623 2.062 2.892 1.002 5.532 2.436 7.83 4.473 2.9 2.559 4.97 5.688 6.315 9.306.79 2.142 1.336 4.343 1.752 6.583.326 1.769.57 3.545.733 5.33.138 1.442.244 2.892.334 4.334.204 3.105.302 6.217.383 9.322l.049 1.564h-1.19c-.374-.04-.741-.073-1.116-.114-1.36-.155-2.721-.269-4.074-.473-2.412-.358-4.759-.961-7.073-1.735-7.268-2.445-13.583-6.38-18.847-11.986C8.4 71.89 4.84 65.9 2.762 59.048c-1.043-3.414-1.663-6.91-1.915-10.47-.016-.196-.074-.383-.114-.579v-.505H.725zm47.682 43.929c-.04-.424-.114-.847-.106-1.271.033-1.89.09-3.78.147-5.671a82.05 82.05 0 01.155-3.13c.106-1.531.212-3.063.358-4.587.123-1.295.27-2.59.457-3.886.472-3.284 1.157-6.519 2.436-9.59 1.94-4.63 5.036-8.255 9.37-10.805 2.005-1.174 4.156-1.98 6.389-2.6 1.923-.53 3.878-.912 5.85-1.206a85.405 85.405 0 015.94-.66c1.605-.122 3.21-.203 4.816-.285 2.24-.114 4.49-.187 6.73-.163.4 0 .79.033 1.19.057v.562c-.016.09-.049.18-.057.27-.025.325-.025.643-.073.969-.212 1.589-.392 3.194-.66 4.775-.465 2.721-1.255 5.361-2.25 7.936-4.937 12.768-15.97 23.818-30.898 27.729-1.596.415-3.202.79-4.84 1.01-1.214.155-2.428.285-3.634.432-.317.04-.635.081-.961.114h-.375.016z"/></svg><svg viewBox="0 0 111 97" id="logo" xmlns="http://www.w3.org/2000/svg"><path d="M72.848.934l18.18 31.955s1.654 2.204-1.1 2.204H48.605l10.467-10.467s-2.754-2.754-8.817-3.858c-4.335-.79-10.467 0-12.671.55-3.894.972-7.163 1.654-11.572 5.509-4.408 3.858-7.162 8.263-7.162 8.263s2.479-7.438 6.058-12.122c2.615-3.417 7.485-7.581 11.572-9.917 3.858-2.204 7.163-3.304 14.875-4.408 7.636-1.093 16.139 1.491 16.53 1.1.55-.55 4.959-8.817 4.959-8.817l.004.008zm-34.22 95.591L20.448 64.57s-1.654-2.204 1.1-2.204H62.87L52.403 72.832s2.755 2.755 8.817 3.859c4.335.79 10.468 0 12.672-.55 3.893-.973 7.163-1.654 11.571-5.509 4.409-3.858 7.163-8.263 7.163-8.263s-2.48 7.438-6.059 12.121c-2.615 3.417-7.484 7.582-11.571 9.918-3.859 2.204-7.163 3.304-14.876 4.408-7.635 1.093-16.139-1.491-16.53-1.1-.55.55-4.958 8.817-4.958 8.817l-.004-.008zM7.665 39.584h3.529l6.748 15.817H14.24l-1.453-3.765H5.91L4.5 55.4H.97l6.695-15.817zM9.3 42.726l-2.313 6.09H11.7l-2.398-6.09H9.3zm12.601 12.675h-3.196V39.584h3.196v15.817zm5.775 0h-3.195V39.584h3.195v15.817zm2.434-2.421h6.465c1.096 0 1.647-.376 1.647-1.131 0-.756-.55-1.14-1.647-1.14H33.93c-1.483 0-2.506-.208-3.068-.623-.631-.472-.945-1.36-.945-2.657 0-2.425 1.367-3.638 4.099-3.638H40.6v2.421h-5.412c-.782 0-1.309.054-1.58.163-.36.143-.539.441-.539.895 0 .697.485 1.042 1.453 1.042H37.3c2.603 0 3.905 1.15 3.905 3.455 0 1.085-.299 1.96-.9 2.63-.6.67-1.355 1.008-2.273 1.008h-7.918v-2.421l-.004-.004zm13.28-13.396h3.045v4.207h2.724c1.7 0 2.932.333 3.703 1 .767.666 1.15 1.75 1.15 3.25v7.36h-3.087v-7.004c0-.782-.143-1.32-.426-1.615-.283-.295-.825-.442-1.62-.442h-2.444v9.061h-3.044V39.584zm13.512 4.207h6.283c3.192 0 4.788 1.445 4.788 4.335V55.4H59.73c-1.155 0-2.042-.29-2.662-.872-.62-.58-.93-1.406-.93-2.475 0-1.333.365-2.286 1.09-2.851.724-.566 1.91-.849 3.548-.849h4.044v-.29c0-.717-.225-1.213-.67-1.484-.41-.26-1.116-.387-2.115-.387h-5.137v-2.398l.004-.004zm4.079 9.274h3.843v-2.398H61.21c-.682 0-1.163.085-1.441.26-.303.193-.454.542-.454 1.042s.17.806.516.957c.209.093.592.14 1.15.14zm9.661-9.274h5.153c1.212 0 2.057.217 2.541.65.48.435.72 1.194.72 2.275v1.937h-2.928v-1.496c0-.495-.1-.813-.302-.956-.167-.12-.511-.182-1.042-.182h-1.077V55.4h-3.068V43.79h.004zm13.583-1.325H81.01v-2.882h3.215v2.882zm0 12.935H81.01v-11.61h3.215v11.61zm2.646-11.61h5.768c1.736 0 2.98.325 3.73.972.749.651 1.124 1.744 1.124 3.278v7.36h-3.068v-6.985c0-.832-.12-1.379-.356-1.646-.268-.287-.822-.43-1.67-.43h-2.464v9.061h-3.068v-11.61h.004zm24.125 11.192c0 1.576-.352 2.742-1.053 3.498-.705.751-1.817 1.131-3.336 1.131h-6.016v-2.355h5.489c1.221 0 1.829-.554 1.829-1.658v-.194h-2.495c-1.077 0-1.859-.058-2.348-.17a4.198 4.198 0 01-2.01-1.108c-1.147-1.105-1.72-2.604-1.72-4.498 0-1.894.573-3.355 1.72-4.467.941-.91 2.394-1.367 4.358-1.367H111v11.192l-.004-.004zm-4.679-1.98h1.592v-6.725h-1.592c-1.19 0-1.999.124-2.421.376-.911.538-1.368 1.526-1.368 2.971 0 1.29.306 2.189.914 2.689.554.46 1.511.69 2.875.69z"/></svg><svg viewBox="0 0 58 65" id="play" xmlns="http://www.w3.org/2000/svg"><path fill-rule="evenodd" clip-rule="evenodd" d="M0 0l58 32.924L1.5 65 0 0z"/></svg><svg viewBox="0 0 52 43" id="telegram" xmlns="http://www.w3.org/2000/svg"><path d="M3.23 18.63S26.096 9.245 34.032 5.945C37.071 4.624 47.378.395 47.378.395s4.759-1.85 4.36 2.64c-.131 1.85-1.19 8.328-2.25 15.335-1.588 9.916-3.308 20.754-3.308 20.754s-.26 3.039-2.51 3.569c-2.248.53-5.948-1.85-6.608-2.38-.53-.399-9.916-6.347-13.346-9.256-.93-.79-1.98-2.38.13-4.23 4.759-4.358 10.446-9.777 13.876-13.216 1.59-1.588 3.17-5.288-3.438-.79a1135.023 1135.023 0 01-18.635 12.557s-2.119 1.32-6.079.13C5.602 24.318.982 22.729.982 22.729s-3.17-1.98 2.249-4.098z"/></svg><svg viewBox="0 0 45 52" id="tiktok" xmlns="http://www.w3.org/2000/svg"><path d="M44.446 20.814c-.424.04-.84.065-1.264.065-4.628 0-8.946-2.33-11.489-6.209v21.137c0 8.629-6.99 15.62-15.62 15.62-8.629 0-15.62-6.991-15.62-15.62 0-8.63 6.991-15.62 15.62-15.62.326 0 .644.032.97.048v7.7c-.318-.04-.636-.097-.97-.097a7.979 7.979 0 00-7.977 7.977 7.974 7.974 0 007.977 7.977c4.409 0 8.295-3.471 8.295-7.871L24.442.02h7.366a13.712 13.712 0 0012.646 12.246v8.556l-.008-.008z"/></svg><svg viewBox="0 0 42 43" id="twitter" xmlns="http://www.w3.org/2000/svg"><path d="M25.028 18.503L40.192.878h-3.593L23.43 16.18 12.92.878H.795l15.897 23.14L.795 42.5H4.39l13.9-16.158L29.395 42.5H41.52L25.028 18.503zm-4.921 5.72l-1.614-2.306L5.676 3.583h5.516l10.34 14.797 1.614 2.306 13.444 19.23h-5.516L20.098 24.223h.009z"/></svg><svg viewBox="0 0 59 34" id="vk" xmlns="http://www.w3.org/2000/svg"><path fill-rule="evenodd" clip-rule="evenodd" d="M29.058 32.926h3.435s1.038-.117 1.569-.687c.484-.522.468-1.506.468-1.506s-.07-4.613 2.076-5.292c2.108-.671 4.816 4.457 7.688 6.432 2.17 1.49 3.825 1.163 3.825 1.163l7.68-.11s4.02-.25 2.116-3.403c-.157-.257-1.109-2.334-5.706-6.603-4.816-4.473-4.168-3.747 1.631-11.474 3.528-4.706 4.941-7.579 4.504-8.812-.422-1.17-3.02-.866-3.02-.866l-8.649.054s-.64-.086-1.116.195c-.468.281-.765.93-.765.93S43.428 6.59 41.602 9.69c-3.848 6.533-5.386 6.884-6.018 6.478-1.468-.944-1.1-3.8-1.1-5.83 0-6.338.96-8.976-1.874-9.663C31.673.449 30.979.3 28.575.277 25.49.246 22.877.285 21.4 1.01c-.983.483-1.74 1.553-1.28 1.615.57.078 1.866.351 2.553 1.28.89 1.202.858 3.91.858 3.91s.508 7.455-1.186 8.384c-1.163.632-2.763-.664-6.198-6.596-1.756-3.036-3.083-6.392-3.083-6.392s-.257-.625-.71-.96c-.554-.406-1.327-.539-1.327-.539l-8.219.055s-1.233.03-1.686.57c-.406.476-.03 1.467-.03 1.467s6.43 15.048 13.713 22.627c6.681 6.955 14.26 6.494 14.26 6.494h-.008z"/></svg><svg viewBox="0 0 46 32" id="youtube" xmlns="http://www.w3.org/2000/svg"><path d="M45.356 9.91c0-5.378-4.359-9.745-9.745-9.745H10.694C5.316.165.948 4.525.948 9.91v11.595c0 5.378 4.36 9.746 9.746 9.746H35.61c5.378 0 9.745-4.36 9.745-9.746V9.91zm-14.65 6.666L19.535 22.1c-.44.236-1.923-.081-1.923-.578V10.179c0-.505 1.499-.823 1.939-.57l10.69 5.818c.449.252.921.904.465 1.149z"/></svg></svg>